<mxfile host="app.diagrams.net" modified="2023-12-24T00:57:04.296Z" agent="Mozilla/5.0 (X11; Linux x86_64) AppleWebKit/537.36 (KHTML, like Gecko) Chrome/120.0.0.0 Safari/537.36" etag="qD6SlKqxoCAm3UMXqU-1" version="22.1.11" type="device">
  <diagram name="Page-1" id="yB_QhblmSE4UEMxLMI4U">
    <mxGraphModel dx="1724" dy="496" grid="1" gridSize="10" guides="1" tooltips="1" connect="1" arrows="1" fold="1" page="1" pageScale="1" pageWidth="850" pageHeight="1100" math="0" shadow="0">
      <root>
        <mxCell id="0" />
        <mxCell id="1" parent="0" />
        <mxCell id="_iIOO6hCiXQxucpZOUNH-1" value="&lt;b&gt;&lt;font style=&quot;font-size: 18px;&quot;&gt;Seu personagem é heroi?&lt;/font&gt;&lt;/b&gt;" style="rounded=1;whiteSpace=wrap;html=1;fillColor=#f5f5f5;strokeColor=#666666;fontColor=#333333;" parent="1" vertex="1">
          <mxGeometry x="250" y="30" width="460" height="70" as="geometry" />
        </mxCell>
        <mxCell id="_iIOO6hCiXQxucpZOUNH-2" value="Sim" style="rounded=1;whiteSpace=wrap;html=1;fillColor=#dae8fc;strokeColor=#6c8ebf;" parent="1" vertex="1">
          <mxGeometry x="250" y="120" width="90" height="40" as="geometry" />
        </mxCell>
        <mxCell id="_iIOO6hCiXQxucpZOUNH-4" value="" style="endArrow=none;html=1;rounded=0;exitX=0.5;exitY=0;exitDx=0;exitDy=0;" parent="1" edge="1" source="_iIOO6hCiXQxucpZOUNH-2">
          <mxGeometry width="50" height="50" relative="1" as="geometry">
            <mxPoint x="370" y="150" as="sourcePoint" />
            <mxPoint x="420" y="100" as="targetPoint" />
          </mxGeometry>
        </mxCell>
        <mxCell id="_iIOO6hCiXQxucpZOUNH-5" value="Não" style="rounded=1;whiteSpace=wrap;html=1;fillColor=#f8cecc;strokeColor=#b85450;" parent="1" vertex="1">
          <mxGeometry x="550" y="120" width="90" height="40" as="geometry" />
        </mxCell>
        <mxCell id="_iIOO6hCiXQxucpZOUNH-6" value="" style="endArrow=none;html=1;rounded=0;entryX=0.613;entryY=1.014;entryDx=0;entryDy=0;entryPerimeter=0;exitX=0.5;exitY=0;exitDx=0;exitDy=0;" parent="1" target="_iIOO6hCiXQxucpZOUNH-1" edge="1" source="_iIOO6hCiXQxucpZOUNH-5">
          <mxGeometry width="50" height="50" relative="1" as="geometry">
            <mxPoint x="640" y="150" as="sourcePoint" />
            <mxPoint x="569.9994117647059" y="90" as="targetPoint" />
          </mxGeometry>
        </mxCell>
        <mxCell id="_iIOO6hCiXQxucpZOUNH-7" value="Seu personagem já morreu?" style="rounded=1;whiteSpace=wrap;html=1;fillColor=#dae8fc;strokeColor=#6c8ebf;" parent="1" vertex="1">
          <mxGeometry x="40" y="180" width="170" height="60" as="geometry" />
        </mxCell>
        <mxCell id="_iIOO6hCiXQxucpZOUNH-13" value="Sim" style="rounded=1;whiteSpace=wrap;html=1;fillColor=#fff2cc;strokeColor=#d6b656;" parent="1" vertex="1">
          <mxGeometry x="25" y="260" width="90" height="40" as="geometry" />
        </mxCell>
        <mxCell id="_iIOO6hCiXQxucpZOUNH-14" value="" style="endArrow=none;html=1;rounded=0;exitX=0.622;exitY=0.05;exitDx=0;exitDy=0;exitPerimeter=0;" parent="1" edge="1" target="_iIOO6hCiXQxucpZOUNH-7" source="_iIOO6hCiXQxucpZOUNH-13">
          <mxGeometry width="50" height="50" relative="1" as="geometry">
            <mxPoint x="120" y="360" as="sourcePoint" />
            <mxPoint x="170" y="310" as="targetPoint" />
          </mxGeometry>
        </mxCell>
        <mxCell id="_iIOO6hCiXQxucpZOUNH-15" value="Não" style="rounded=1;whiteSpace=wrap;html=1;fillColor=#d5e8d4;strokeColor=#82b366;" parent="1" vertex="1">
          <mxGeometry x="130" y="260" width="90" height="40" as="geometry" />
        </mxCell>
        <mxCell id="_iIOO6hCiXQxucpZOUNH-16" value="" style="endArrow=none;html=1;rounded=0;entryX=0.635;entryY=1;entryDx=0;entryDy=0;entryPerimeter=0;" parent="1" edge="1" target="_iIOO6hCiXQxucpZOUNH-7" source="_iIOO6hCiXQxucpZOUNH-15">
          <mxGeometry width="50" height="50" relative="1" as="geometry">
            <mxPoint x="280" y="360" as="sourcePoint" />
            <mxPoint x="204" y="310" as="targetPoint" />
          </mxGeometry>
        </mxCell>
        <mxCell id="_iIOO6hCiXQxucpZOUNH-18" value="" style="endArrow=none;html=1;rounded=0;entryX=0.433;entryY=1.025;entryDx=0;entryDy=0;entryPerimeter=0;" parent="1" target="_iIOO6hCiXQxucpZOUNH-2" edge="1" source="_iIOO6hCiXQxucpZOUNH-7">
          <mxGeometry width="50" height="50" relative="1" as="geometry">
            <mxPoint x="210" y="250" as="sourcePoint" />
            <mxPoint x="290" y="200" as="targetPoint" />
          </mxGeometry>
        </mxCell>
        <mxCell id="_iIOO6hCiXQxucpZOUNH-19" value="Seu&amp;nbsp; personagem é humano" style="rounded=1;whiteSpace=wrap;html=1;fillColor=#e1d5e7;strokeColor=#9673a6;" parent="1" vertex="1">
          <mxGeometry x="510" y="220" width="170" height="60" as="geometry" />
        </mxCell>
        <mxCell id="_iIOO6hCiXQxucpZOUNH-23" value="" style="endArrow=none;html=1;rounded=0;exitX=0.5;exitY=0;exitDx=0;exitDy=0;" parent="1" edge="1" target="_iIOO6hCiXQxucpZOUNH-19" source="_iIOO6hCiXQxucpZOUNH-22">
          <mxGeometry width="50" height="50" relative="1" as="geometry">
            <mxPoint x="696" y="330" as="sourcePoint" />
            <mxPoint x="620" y="280" as="targetPoint" />
          </mxGeometry>
        </mxCell>
        <mxCell id="_iIOO6hCiXQxucpZOUNH-24" value="" style="endArrow=none;html=1;rounded=0;entryX=0.5;entryY=1;entryDx=0;entryDy=0;exitX=0.588;exitY=0.05;exitDx=0;exitDy=0;exitPerimeter=0;" parent="1" target="_iIOO6hCiXQxucpZOUNH-5" edge="1" source="_iIOO6hCiXQxucpZOUNH-19">
          <mxGeometry width="50" height="50" relative="1" as="geometry">
            <mxPoint x="670" y="250" as="sourcePoint" />
            <mxPoint x="809" y="191" as="targetPoint" />
          </mxGeometry>
        </mxCell>
        <mxCell id="_iIOO6hCiXQxucpZOUNH-26" value="Perguntas_super&lt;br&gt;heroi" style="shape=parallelogram;perimeter=parallelogramPerimeter;whiteSpace=wrap;html=1;fixedSize=1;fillColor=#d5e8d4;strokeColor=#82b366;" parent="1" vertex="1">
          <mxGeometry x="160" y="330" width="130" height="60" as="geometry" />
        </mxCell>
        <mxCell id="_iIOO6hCiXQxucpZOUNH-27" value="" style="endArrow=none;html=1;rounded=0;entryX=0.5;entryY=1;entryDx=0;entryDy=0;" parent="1" target="_iIOO6hCiXQxucpZOUNH-13" edge="1" source="_iIOO6hCiXQxucpZOUNH-25">
          <mxGeometry width="50" height="50" relative="1" as="geometry">
            <mxPoint x="80" y="420" as="sourcePoint" />
            <mxPoint x="130" y="370" as="targetPoint" />
          </mxGeometry>
        </mxCell>
        <mxCell id="_iIOO6hCiXQxucpZOUNH-29" value="" style="endArrow=none;html=1;rounded=0;entryX=0.5;entryY=1;entryDx=0;entryDy=0;exitX=0.75;exitY=0;exitDx=0;exitDy=0;" parent="1" source="_iIOO6hCiXQxucpZOUNH-26" target="_iIOO6hCiXQxucpZOUNH-15" edge="1">
          <mxGeometry width="50" height="50" relative="1" as="geometry">
            <mxPoint x="90" y="430" as="sourcePoint" />
            <mxPoint x="115" y="410" as="targetPoint" />
          </mxGeometry>
        </mxCell>
        <mxCell id="_iIOO6hCiXQxucpZOUNH-44" value="Perguntas_&lt;br&gt;humanos" style="shape=parallelogram;perimeter=parallelogramPerimeter;whiteSpace=wrap;html=1;fixedSize=1;fillColor=#e1d5e7;strokeColor=#9673a6;" parent="1" vertex="1">
          <mxGeometry x="500" y="340" width="120" height="60" as="geometry" />
        </mxCell>
        <mxCell id="_iIOO6hCiXQxucpZOUNH-45" value="" style="endArrow=none;html=1;rounded=0;exitX=0.5;exitY=0;exitDx=0;exitDy=0;" parent="1" target="qma_3xTh6tT7LOHASFIu-76" edge="1" source="_iIOO6hCiXQxucpZOUNH-44">
          <mxGeometry width="50" height="50" relative="1" as="geometry">
            <mxPoint x="570" y="320" as="sourcePoint" />
            <mxPoint x="595" y="330" as="targetPoint" />
          </mxGeometry>
        </mxCell>
        <mxCell id="_iIOO6hCiXQxucpZOUNH-50" value="Familia_pera" style="rounded=1;whiteSpace=wrap;html=1;fillColor=#f8cecc;strokeColor=#b85450;gradientColor=#ea6b66;" parent="1" vertex="1">
          <mxGeometry x="27.5" y="420" width="85" height="60" as="geometry" />
        </mxCell>
        <mxCell id="_iIOO6hCiXQxucpZOUNH-51" value="Masculino" style="rounded=1;whiteSpace=wrap;html=1;fillColor=#d5e8d4;gradientColor=#97d077;strokeColor=#82b366;" parent="1" vertex="1">
          <mxGeometry x="230" y="420" width="90" height="60" as="geometry" />
        </mxCell>
        <mxCell id="_iIOO6hCiXQxucpZOUNH-52" value="Amigo da familia&lt;br&gt;Pera" style="rounded=1;whiteSpace=wrap;html=1;fillColor=#dae8fc;gradientColor=#7ea6e0;strokeColor=#6c8ebf;" parent="1" vertex="1">
          <mxGeometry x="120" y="420" width="100" height="60" as="geometry" />
        </mxCell>
        <mxCell id="_iIOO6hCiXQxucpZOUNH-53" value="Feminino" style="rounded=1;whiteSpace=wrap;html=1;fillColor=#e6d0de;gradientColor=#d5739d;strokeColor=#996185;" parent="1" vertex="1">
          <mxGeometry x="335" y="420" width="90" height="60" as="geometry" />
        </mxCell>
        <mxCell id="_iIOO6hCiXQxucpZOUNH-54" value="" style="endArrow=none;html=1;rounded=0;exitX=0.635;exitY=-0.033;exitDx=0;exitDy=0;exitPerimeter=0;entryX=0.323;entryY=0.983;entryDx=0;entryDy=0;entryPerimeter=0;" parent="1" source="_iIOO6hCiXQxucpZOUNH-50" target="_iIOO6hCiXQxucpZOUNH-26" edge="1">
          <mxGeometry width="50" height="50" relative="1" as="geometry">
            <mxPoint x="250" y="520" as="sourcePoint" />
            <mxPoint x="240" y="480" as="targetPoint" />
          </mxGeometry>
        </mxCell>
        <mxCell id="_iIOO6hCiXQxucpZOUNH-55" value="" style="endArrow=none;html=1;rounded=0;exitX=0.5;exitY=0;exitDx=0;exitDy=0;entryX=0.408;entryY=1;entryDx=0;entryDy=0;entryPerimeter=0;" parent="1" source="_iIOO6hCiXQxucpZOUNH-52" target="_iIOO6hCiXQxucpZOUNH-26" edge="1">
          <mxGeometry width="50" height="50" relative="1" as="geometry">
            <mxPoint x="79" y="528" as="sourcePoint" />
            <mxPoint x="230" y="390" as="targetPoint" />
          </mxGeometry>
        </mxCell>
        <mxCell id="_iIOO6hCiXQxucpZOUNH-56" value="" style="endArrow=none;html=1;rounded=0;exitX=0.5;exitY=0;exitDx=0;exitDy=0;entryX=0.5;entryY=1;entryDx=0;entryDy=0;" parent="1" source="_iIOO6hCiXQxucpZOUNH-51" target="_iIOO6hCiXQxucpZOUNH-26" edge="1">
          <mxGeometry width="50" height="50" relative="1" as="geometry">
            <mxPoint x="89" y="538" as="sourcePoint" />
            <mxPoint x="264" y="501" as="targetPoint" />
          </mxGeometry>
        </mxCell>
        <mxCell id="_iIOO6hCiXQxucpZOUNH-57" value="" style="endArrow=none;html=1;rounded=0;exitX=0.5;exitY=0;exitDx=0;exitDy=0;entryX=0.454;entryY=1;entryDx=0;entryDy=0;entryPerimeter=0;" parent="1" source="_iIOO6hCiXQxucpZOUNH-53" target="_iIOO6hCiXQxucpZOUNH-26" edge="1">
          <mxGeometry width="50" height="50" relative="1" as="geometry">
            <mxPoint x="99" y="548" as="sourcePoint" />
            <mxPoint x="274" y="511" as="targetPoint" />
          </mxGeometry>
        </mxCell>
        <mxCell id="_iIOO6hCiXQxucpZOUNH-25" value="Perguntas_&lt;br&gt;MORRERAM" style="shape=parallelogram;perimeter=parallelogramPerimeter;whiteSpace=wrap;html=1;fixedSize=1;fillColor=#fff2cc;strokeColor=#d6b656;" parent="1" vertex="1">
          <mxGeometry x="-170" y="310" width="120" height="60" as="geometry" />
        </mxCell>
        <mxCell id="qma_3xTh6tT7LOHASFIu-3" value="" style="endArrow=none;html=1;rounded=0;entryX=0.576;entryY=1.017;entryDx=0;entryDy=0;entryPerimeter=0;" edge="1" parent="1" source="qma_3xTh6tT7LOHASFIu-76" target="_iIOO6hCiXQxucpZOUNH-19">
          <mxGeometry width="50" height="50" relative="1" as="geometry">
            <mxPoint x="696" y="330" as="sourcePoint" />
            <mxPoint x="620" y="280" as="targetPoint" />
          </mxGeometry>
        </mxCell>
        <mxCell id="_iIOO6hCiXQxucpZOUNH-22" value="Não" style="rounded=1;whiteSpace=wrap;html=1;fillColor=#f5f5f5;strokeColor=#666666;gradientColor=#b3b3b3;" parent="1" vertex="1">
          <mxGeometry x="730" y="280" width="55" height="40" as="geometry" />
        </mxCell>
        <mxCell id="qma_3xTh6tT7LOHASFIu-4" value="Sim" style="rounded=1;whiteSpace=wrap;html=1;fillColor=#fff2cc;strokeColor=#d6b656;" vertex="1" parent="1">
          <mxGeometry x="25" y="560" width="50" height="40" as="geometry" />
        </mxCell>
        <mxCell id="qma_3xTh6tT7LOHASFIu-5" value="" style="endArrow=none;html=1;rounded=0;exitX=0.622;exitY=0.05;exitDx=0;exitDy=0;exitPerimeter=0;entryX=0.5;entryY=1;entryDx=0;entryDy=0;" edge="1" parent="1" source="qma_3xTh6tT7LOHASFIu-4" target="qma_3xTh6tT7LOHASFIu-8">
          <mxGeometry width="50" height="50" relative="1" as="geometry">
            <mxPoint x="95" y="650" as="sourcePoint" />
            <mxPoint x="70" y="550" as="targetPoint" />
          </mxGeometry>
        </mxCell>
        <mxCell id="qma_3xTh6tT7LOHASFIu-6" value="Não" style="rounded=1;whiteSpace=wrap;html=1;fillColor=#d5e8d4;strokeColor=#82b366;" vertex="1" parent="1">
          <mxGeometry x="95" y="560" width="35" height="40" as="geometry" />
        </mxCell>
        <mxCell id="qma_3xTh6tT7LOHASFIu-7" value="" style="endArrow=none;html=1;rounded=0;entryX=0.5;entryY=1;entryDx=0;entryDy=0;" edge="1" parent="1" source="qma_3xTh6tT7LOHASFIu-6" target="qma_3xTh6tT7LOHASFIu-8">
          <mxGeometry width="50" height="50" relative="1" as="geometry">
            <mxPoint x="255" y="650" as="sourcePoint" />
            <mxPoint x="110" y="550" as="targetPoint" />
          </mxGeometry>
        </mxCell>
        <mxCell id="qma_3xTh6tT7LOHASFIu-8" value="cabelo preto" style="rounded=1;whiteSpace=wrap;html=1;fillColor=#dae8fc;strokeColor=#6c8ebf;" vertex="1" parent="1">
          <mxGeometry x="60" y="500" width="50" height="40" as="geometry" />
        </mxCell>
        <mxCell id="qma_3xTh6tT7LOHASFIu-10" value="" style="endArrow=none;html=1;rounded=0;exitX=0.5;exitY=0;exitDx=0;exitDy=0;entryX=0.5;entryY=1;entryDx=0;entryDy=0;" edge="1" parent="1" source="qma_3xTh6tT7LOHASFIu-8" target="_iIOO6hCiXQxucpZOUNH-50">
          <mxGeometry width="50" height="50" relative="1" as="geometry">
            <mxPoint x="400" y="470" as="sourcePoint" />
            <mxPoint x="450" y="420" as="targetPoint" />
          </mxGeometry>
        </mxCell>
        <mxCell id="qma_3xTh6tT7LOHASFIu-12" value="Omnidroid" style="shape=process;whiteSpace=wrap;html=1;backgroundOutline=1;fillColor=#bac8d3;strokeColor=#23445d;" vertex="1" parent="1">
          <mxGeometry x="712.5" y="350" width="90" height="40" as="geometry" />
        </mxCell>
        <mxCell id="qma_3xTh6tT7LOHASFIu-13" value="" style="endArrow=none;html=1;rounded=0;entryX=0.37;entryY=0.96;entryDx=0;entryDy=0;entryPerimeter=0;exitX=0.5;exitY=0;exitDx=0;exitDy=0;" edge="1" parent="1" source="qma_3xTh6tT7LOHASFIu-12" target="_iIOO6hCiXQxucpZOUNH-22">
          <mxGeometry width="50" height="50" relative="1" as="geometry">
            <mxPoint x="400" y="470" as="sourcePoint" />
            <mxPoint x="450" y="420" as="targetPoint" />
          </mxGeometry>
        </mxCell>
        <mxCell id="qma_3xTh6tT7LOHASFIu-14" value="Gelado" style="shape=process;whiteSpace=wrap;html=1;backgroundOutline=1;fillColor=#bac8d3;strokeColor=#23445d;" vertex="1" parent="1">
          <mxGeometry x="130" y="500" width="80" height="30" as="geometry" />
        </mxCell>
        <mxCell id="qma_3xTh6tT7LOHASFIu-15" value="" style="endArrow=none;html=1;rounded=0;exitX=0.5;exitY=0;exitDx=0;exitDy=0;" edge="1" parent="1" source="qma_3xTh6tT7LOHASFIu-14" target="_iIOO6hCiXQxucpZOUNH-52">
          <mxGeometry width="50" height="50" relative="1" as="geometry">
            <mxPoint x="400" y="500" as="sourcePoint" />
            <mxPoint x="450" y="450" as="targetPoint" />
          </mxGeometry>
        </mxCell>
        <mxCell id="qma_3xTh6tT7LOHASFIu-16" value="Homens&lt;br&gt;da&amp;nbsp;&lt;br&gt;familia" style="shape=parallelogram;perimeter=parallelogramPerimeter;whiteSpace=wrap;html=1;fixedSize=1;fillColor=#fad9d5;strokeColor=#ae4132;" vertex="1" parent="1">
          <mxGeometry x="82.5" y="610" width="85" height="60" as="geometry" />
        </mxCell>
        <mxCell id="qma_3xTh6tT7LOHASFIu-17" value="mulheres &lt;br&gt;da&amp;nbsp;&lt;br&gt;familia" style="shape=parallelogram;perimeter=parallelogramPerimeter;whiteSpace=wrap;html=1;fixedSize=1;fillColor=#fad9d5;strokeColor=#ae4132;" vertex="1" parent="1">
          <mxGeometry x="10" y="610" width="80" height="60" as="geometry" />
        </mxCell>
        <mxCell id="qma_3xTh6tT7LOHASFIu-18" value="" style="endArrow=none;html=1;rounded=0;" edge="1" parent="1" source="qma_3xTh6tT7LOHASFIu-17" target="qma_3xTh6tT7LOHASFIu-4">
          <mxGeometry width="50" height="50" relative="1" as="geometry">
            <mxPoint x="400" y="740" as="sourcePoint" />
            <mxPoint x="450" y="690" as="targetPoint" />
          </mxGeometry>
        </mxCell>
        <mxCell id="qma_3xTh6tT7LOHASFIu-21" value="" style="endArrow=none;html=1;rounded=0;entryX=0.25;entryY=1;entryDx=0;entryDy=0;" edge="1" parent="1" source="qma_3xTh6tT7LOHASFIu-16" target="qma_3xTh6tT7LOHASFIu-6">
          <mxGeometry width="50" height="50" relative="1" as="geometry">
            <mxPoint x="57" y="670" as="sourcePoint" />
            <mxPoint x="56" y="640" as="targetPoint" />
          </mxGeometry>
        </mxCell>
        <mxCell id="qma_3xTh6tT7LOHASFIu-22" value="herois" style="shape=parallelogram;perimeter=parallelogramPerimeter;whiteSpace=wrap;html=1;fixedSize=1;fillColor=#fad9d5;strokeColor=#ae4132;" vertex="1" parent="1">
          <mxGeometry x="230" y="490" width="85" height="40" as="geometry" />
        </mxCell>
        <mxCell id="qma_3xTh6tT7LOHASFIu-23" value="heroinas" style="shape=parallelogram;perimeter=parallelogramPerimeter;whiteSpace=wrap;html=1;fixedSize=1;fillColor=#fad9d5;strokeColor=#ae4132;" vertex="1" parent="1">
          <mxGeometry x="335" y="490" width="85" height="50" as="geometry" />
        </mxCell>
        <mxCell id="qma_3xTh6tT7LOHASFIu-28" value="" style="endArrow=none;html=1;rounded=0;" edge="1" parent="1" source="_iIOO6hCiXQxucpZOUNH-51" target="qma_3xTh6tT7LOHASFIu-22">
          <mxGeometry width="50" height="50" relative="1" as="geometry">
            <mxPoint x="400" y="500" as="sourcePoint" />
            <mxPoint x="450" y="450" as="targetPoint" />
          </mxGeometry>
        </mxCell>
        <mxCell id="qma_3xTh6tT7LOHASFIu-30" value="" style="endArrow=none;html=1;rounded=0;" edge="1" parent="1" source="qma_3xTh6tT7LOHASFIu-23" target="_iIOO6hCiXQxucpZOUNH-53">
          <mxGeometry width="50" height="50" relative="1" as="geometry">
            <mxPoint x="400" y="500" as="sourcePoint" />
            <mxPoint x="450" y="450" as="targetPoint" />
          </mxGeometry>
        </mxCell>
        <mxCell id="qma_3xTh6tT7LOHASFIu-31" value="Teve a memória apagada?" style="rounded=1;whiteSpace=wrap;html=1;fillColor=#f8cecc;strokeColor=#b85450;gradientColor=#ea6b66;" vertex="1" parent="1">
          <mxGeometry x="383" y="570" width="85" height="60" as="geometry" />
        </mxCell>
        <mxCell id="qma_3xTh6tT7LOHASFIu-32" value="é vilão" style="rounded=1;whiteSpace=wrap;html=1;fillColor=#fad7ac;strokeColor=#b46504;" vertex="1" parent="1">
          <mxGeometry x="595" y="560" width="70" height="60" as="geometry" />
        </mxCell>
        <mxCell id="qma_3xTh6tT7LOHASFIu-33" value="Seu personagem&lt;br&gt;é mulher?" style="rounded=1;whiteSpace=wrap;html=1;fillColor=#b1ddf0;strokeColor=#10739e;" vertex="1" parent="1">
          <mxGeometry x="510" y="420" width="85" height="60" as="geometry" />
        </mxCell>
        <mxCell id="qma_3xTh6tT7LOHASFIu-34" value="Sim" style="rounded=1;whiteSpace=wrap;html=1;fillColor=#fff2cc;strokeColor=#d6b656;" vertex="1" parent="1">
          <mxGeometry x="455" y="500" width="90" height="40" as="geometry" />
        </mxCell>
        <mxCell id="qma_3xTh6tT7LOHASFIu-35" value="" style="endArrow=none;html=1;rounded=0;exitX=0.622;exitY=0.05;exitDx=0;exitDy=0;exitPerimeter=0;" edge="1" parent="1" source="qma_3xTh6tT7LOHASFIu-34">
          <mxGeometry width="50" height="50" relative="1" as="geometry">
            <mxPoint x="550" y="600" as="sourcePoint" />
            <mxPoint x="530" y="480" as="targetPoint" />
          </mxGeometry>
        </mxCell>
        <mxCell id="qma_3xTh6tT7LOHASFIu-36" value="Não" style="rounded=1;whiteSpace=wrap;html=1;fillColor=#d5e8d4;strokeColor=#82b366;" vertex="1" parent="1">
          <mxGeometry x="560" y="500" width="90" height="40" as="geometry" />
        </mxCell>
        <mxCell id="qma_3xTh6tT7LOHASFIu-37" value="" style="endArrow=none;html=1;rounded=0;entryX=0.635;entryY=1;entryDx=0;entryDy=0;entryPerimeter=0;" edge="1" parent="1" source="qma_3xTh6tT7LOHASFIu-36">
          <mxGeometry width="50" height="50" relative="1" as="geometry">
            <mxPoint x="710" y="600" as="sourcePoint" />
            <mxPoint x="578" y="480" as="targetPoint" />
          </mxGeometry>
        </mxCell>
        <mxCell id="qma_3xTh6tT7LOHASFIu-38" value="" style="endArrow=none;html=1;rounded=0;exitX=0.5;exitY=0;exitDx=0;exitDy=0;" edge="1" parent="1" source="qma_3xTh6tT7LOHASFIu-33" target="_iIOO6hCiXQxucpZOUNH-44">
          <mxGeometry width="50" height="50" relative="1" as="geometry">
            <mxPoint x="400" y="500" as="sourcePoint" />
            <mxPoint x="450" y="450" as="targetPoint" />
          </mxGeometry>
        </mxCell>
        <mxCell id="qma_3xTh6tT7LOHASFIu-39" value="Teve a memória apagada?" style="rounded=1;whiteSpace=wrap;html=1;fillColor=#f8cecc;strokeColor=#b85450;gradientColor=#ea6b66;" vertex="1" parent="1">
          <mxGeometry x="710" y="710" width="85" height="60" as="geometry" />
        </mxCell>
        <mxCell id="qma_3xTh6tT7LOHASFIu-40" value="è uma vilâ?" style="rounded=1;whiteSpace=wrap;html=1;fillColor=#fad7ac;strokeColor=#b46504;" vertex="1" parent="1">
          <mxGeometry x="455" y="710" width="70" height="60" as="geometry" />
        </mxCell>
        <mxCell id="qma_3xTh6tT7LOHASFIu-41" value="" style="endArrow=none;html=1;rounded=0;entryX=0.5;entryY=1;entryDx=0;entryDy=0;" edge="1" parent="1" source="qma_3xTh6tT7LOHASFIu-31" target="qma_3xTh6tT7LOHASFIu-34">
          <mxGeometry width="50" height="50" relative="1" as="geometry">
            <mxPoint x="400" y="620" as="sourcePoint" />
            <mxPoint x="450" y="570" as="targetPoint" />
          </mxGeometry>
        </mxCell>
        <mxCell id="qma_3xTh6tT7LOHASFIu-43" value="" style="endArrow=none;html=1;rounded=0;" edge="1" parent="1" source="qma_3xTh6tT7LOHASFIu-32" target="qma_3xTh6tT7LOHASFIu-36">
          <mxGeometry width="50" height="50" relative="1" as="geometry">
            <mxPoint x="400" y="740" as="sourcePoint" />
            <mxPoint x="450" y="690" as="targetPoint" />
          </mxGeometry>
        </mxCell>
        <mxCell id="qma_3xTh6tT7LOHASFIu-45" value="Sim" style="rounded=1;whiteSpace=wrap;html=1;fillColor=#fff2cc;strokeColor=#d6b656;" vertex="1" parent="1">
          <mxGeometry x="328" y="650" width="90" height="40" as="geometry" />
        </mxCell>
        <mxCell id="qma_3xTh6tT7LOHASFIu-46" value="" style="endArrow=none;html=1;rounded=0;exitX=0.622;exitY=0.05;exitDx=0;exitDy=0;exitPerimeter=0;" edge="1" parent="1" source="qma_3xTh6tT7LOHASFIu-45">
          <mxGeometry width="50" height="50" relative="1" as="geometry">
            <mxPoint x="423" y="750" as="sourcePoint" />
            <mxPoint x="403" y="630" as="targetPoint" />
          </mxGeometry>
        </mxCell>
        <mxCell id="qma_3xTh6tT7LOHASFIu-47" value="Não" style="rounded=1;whiteSpace=wrap;html=1;fillColor=#d5e8d4;strokeColor=#82b366;" vertex="1" parent="1">
          <mxGeometry x="433" y="650" width="90" height="40" as="geometry" />
        </mxCell>
        <mxCell id="qma_3xTh6tT7LOHASFIu-48" value="" style="endArrow=none;html=1;rounded=0;entryX=0.635;entryY=1;entryDx=0;entryDy=0;entryPerimeter=0;" edge="1" parent="1" source="qma_3xTh6tT7LOHASFIu-47">
          <mxGeometry width="50" height="50" relative="1" as="geometry">
            <mxPoint x="583" y="750" as="sourcePoint" />
            <mxPoint x="451" y="630" as="targetPoint" />
          </mxGeometry>
        </mxCell>
        <mxCell id="qma_3xTh6tT7LOHASFIu-49" value="Karen baba" style="shape=process;whiteSpace=wrap;html=1;backgroundOutline=1;fillColor=#bac8d3;strokeColor=#23445d;" vertex="1" parent="1">
          <mxGeometry x="315" y="710" width="92" height="30" as="geometry" />
        </mxCell>
        <mxCell id="qma_3xTh6tT7LOHASFIu-50" value="" style="endArrow=none;html=1;rounded=0;exitX=0.5;exitY=0;exitDx=0;exitDy=0;" edge="1" parent="1" source="qma_3xTh6tT7LOHASFIu-49">
          <mxGeometry width="50" height="50" relative="1" as="geometry">
            <mxPoint x="598" y="710" as="sourcePoint" />
            <mxPoint x="368" y="690" as="targetPoint" />
          </mxGeometry>
        </mxCell>
        <mxCell id="qma_3xTh6tT7LOHASFIu-51" value="" style="endArrow=none;html=1;rounded=0;exitX=0.357;exitY=0;exitDx=0;exitDy=0;exitPerimeter=0;" edge="1" parent="1" source="qma_3xTh6tT7LOHASFIu-40" target="qma_3xTh6tT7LOHASFIu-47">
          <mxGeometry width="50" height="50" relative="1" as="geometry">
            <mxPoint x="400" y="620" as="sourcePoint" />
            <mxPoint x="450" y="570" as="targetPoint" />
          </mxGeometry>
        </mxCell>
        <mxCell id="qma_3xTh6tT7LOHASFIu-52" value="Sim" style="rounded=1;whiteSpace=wrap;html=1;fillColor=#fff2cc;strokeColor=#d6b656;" vertex="1" parent="1">
          <mxGeometry x="383" y="790" width="90" height="40" as="geometry" />
        </mxCell>
        <mxCell id="qma_3xTh6tT7LOHASFIu-53" value="" style="endArrow=none;html=1;rounded=0;exitX=0.622;exitY=0.05;exitDx=0;exitDy=0;exitPerimeter=0;" edge="1" parent="1" source="qma_3xTh6tT7LOHASFIu-52">
          <mxGeometry width="50" height="50" relative="1" as="geometry">
            <mxPoint x="478" y="890" as="sourcePoint" />
            <mxPoint x="458" y="770" as="targetPoint" />
          </mxGeometry>
        </mxCell>
        <mxCell id="qma_3xTh6tT7LOHASFIu-54" value="Não" style="rounded=1;whiteSpace=wrap;html=1;fillColor=#d5e8d4;strokeColor=#82b366;" vertex="1" parent="1">
          <mxGeometry x="488" y="790" width="90" height="40" as="geometry" />
        </mxCell>
        <mxCell id="qma_3xTh6tT7LOHASFIu-55" value="" style="endArrow=none;html=1;rounded=0;entryX=0.635;entryY=1;entryDx=0;entryDy=0;entryPerimeter=0;" edge="1" parent="1" source="qma_3xTh6tT7LOHASFIu-54">
          <mxGeometry width="50" height="50" relative="1" as="geometry">
            <mxPoint x="638" y="890" as="sourcePoint" />
            <mxPoint x="506" y="770" as="targetPoint" />
          </mxGeometry>
        </mxCell>
        <mxCell id="qma_3xTh6tT7LOHASFIu-57" value="mulheres &lt;br&gt;humanas" style="shape=parallelogram;perimeter=parallelogramPerimeter;whiteSpace=wrap;html=1;fixedSize=1;fillColor=#fad9d5;strokeColor=#ae4132;" vertex="1" parent="1">
          <mxGeometry x="500" y="840" width="100" height="50" as="geometry" />
        </mxCell>
        <mxCell id="qma_3xTh6tT7LOHASFIu-58" value="" style="endArrow=none;html=1;rounded=0;entryX=0;entryY=0.5;entryDx=0;entryDy=0;exitX=0.6;exitY=0;exitDx=0;exitDy=0;exitPerimeter=0;" edge="1" parent="1" target="qma_3xTh6tT7LOHASFIu-52">
          <mxGeometry width="50" height="50" relative="1" as="geometry">
            <mxPoint x="341" y="840" as="sourcePoint" />
            <mxPoint x="450" y="690" as="targetPoint" />
          </mxGeometry>
        </mxCell>
        <mxCell id="qma_3xTh6tT7LOHASFIu-59" value="" style="endArrow=none;html=1;rounded=0;entryX=0.5;entryY=1;entryDx=0;entryDy=0;" edge="1" parent="1" source="qma_3xTh6tT7LOHASFIu-57" target="qma_3xTh6tT7LOHASFIu-54">
          <mxGeometry width="50" height="50" relative="1" as="geometry">
            <mxPoint x="351" y="846" as="sourcePoint" />
            <mxPoint x="393" y="820" as="targetPoint" />
          </mxGeometry>
        </mxCell>
        <mxCell id="qma_3xTh6tT7LOHASFIu-60" value="Evelyn Deavor" style="shape=process;whiteSpace=wrap;html=1;backgroundOutline=1;fillColor=#bac8d3;strokeColor=#23445d;" vertex="1" parent="1">
          <mxGeometry x="290" y="840" width="92" height="30" as="geometry" />
        </mxCell>
        <mxCell id="qma_3xTh6tT7LOHASFIu-61" value="Sim" style="rounded=1;whiteSpace=wrap;html=1;fillColor=#fff2cc;strokeColor=#d6b656;" vertex="1" parent="1">
          <mxGeometry x="550" y="640" width="90" height="40" as="geometry" />
        </mxCell>
        <mxCell id="qma_3xTh6tT7LOHASFIu-62" value="" style="endArrow=none;html=1;rounded=0;exitX=0.622;exitY=0.05;exitDx=0;exitDy=0;exitPerimeter=0;" edge="1" parent="1" source="qma_3xTh6tT7LOHASFIu-61">
          <mxGeometry width="50" height="50" relative="1" as="geometry">
            <mxPoint x="645" y="740" as="sourcePoint" />
            <mxPoint x="625" y="620" as="targetPoint" />
          </mxGeometry>
        </mxCell>
        <mxCell id="qma_3xTh6tT7LOHASFIu-63" value="Não" style="rounded=1;whiteSpace=wrap;html=1;fillColor=#d5e8d4;strokeColor=#82b366;" vertex="1" parent="1">
          <mxGeometry x="655" y="640" width="90" height="40" as="geometry" />
        </mxCell>
        <mxCell id="qma_3xTh6tT7LOHASFIu-64" value="" style="endArrow=none;html=1;rounded=0;entryX=1;entryY=0.75;entryDx=0;entryDy=0;" edge="1" parent="1" source="qma_3xTh6tT7LOHASFIu-63" target="qma_3xTh6tT7LOHASFIu-32">
          <mxGeometry width="50" height="50" relative="1" as="geometry">
            <mxPoint x="805" y="740" as="sourcePoint" />
            <mxPoint x="673" y="620" as="targetPoint" />
          </mxGeometry>
        </mxCell>
        <mxCell id="qma_3xTh6tT7LOHASFIu-65" value="Vilões" style="shape=parallelogram;perimeter=parallelogramPerimeter;whiteSpace=wrap;html=1;fixedSize=1;fillColor=#fad9d5;strokeColor=#ae4132;" vertex="1" parent="1">
          <mxGeometry x="565" y="700" width="85" height="50" as="geometry" />
        </mxCell>
        <mxCell id="qma_3xTh6tT7LOHASFIu-66" value="" style="endArrow=none;html=1;rounded=0;entryX=0.5;entryY=1;entryDx=0;entryDy=0;exitX=0.5;exitY=0;exitDx=0;exitDy=0;" edge="1" parent="1" source="qma_3xTh6tT7LOHASFIu-65" target="qma_3xTh6tT7LOHASFIu-61">
          <mxGeometry width="50" height="50" relative="1" as="geometry">
            <mxPoint x="400" y="740" as="sourcePoint" />
            <mxPoint x="450" y="690" as="targetPoint" />
          </mxGeometry>
        </mxCell>
        <mxCell id="qma_3xTh6tT7LOHASFIu-67" value="" style="endArrow=none;html=1;rounded=0;exitX=0.5;exitY=0;exitDx=0;exitDy=0;" edge="1" parent="1" source="qma_3xTh6tT7LOHASFIu-39" target="qma_3xTh6tT7LOHASFIu-63">
          <mxGeometry width="50" height="50" relative="1" as="geometry">
            <mxPoint x="618" y="710" as="sourcePoint" />
            <mxPoint x="605" y="690" as="targetPoint" />
          </mxGeometry>
        </mxCell>
        <mxCell id="qma_3xTh6tT7LOHASFIu-68" value="Sim" style="rounded=1;whiteSpace=wrap;html=1;fillColor=#fff2cc;strokeColor=#d6b656;" vertex="1" parent="1">
          <mxGeometry x="745" y="790" width="90" height="40" as="geometry" />
        </mxCell>
        <mxCell id="qma_3xTh6tT7LOHASFIu-69" value="" style="endArrow=none;html=1;rounded=0;exitX=0.622;exitY=0.05;exitDx=0;exitDy=0;exitPerimeter=0;" edge="1" parent="1" source="qma_3xTh6tT7LOHASFIu-68" target="qma_3xTh6tT7LOHASFIu-39">
          <mxGeometry width="50" height="50" relative="1" as="geometry">
            <mxPoint x="750" y="900" as="sourcePoint" />
            <mxPoint x="730" y="780" as="targetPoint" />
          </mxGeometry>
        </mxCell>
        <mxCell id="qma_3xTh6tT7LOHASFIu-70" value="Não" style="rounded=1;whiteSpace=wrap;html=1;fillColor=#d5e8d4;strokeColor=#82b366;" vertex="1" parent="1">
          <mxGeometry x="640" y="790" width="90" height="40" as="geometry" />
        </mxCell>
        <mxCell id="qma_3xTh6tT7LOHASFIu-71" value="" style="endArrow=none;html=1;rounded=0;exitX=0.5;exitY=0;exitDx=0;exitDy=0;entryX=0.5;entryY=1;entryDx=0;entryDy=0;" edge="1" parent="1" source="qma_3xTh6tT7LOHASFIu-70" target="qma_3xTh6tT7LOHASFIu-39">
          <mxGeometry width="50" height="50" relative="1" as="geometry">
            <mxPoint x="721" y="812" as="sourcePoint" />
            <mxPoint x="740" y="790" as="targetPoint" />
          </mxGeometry>
        </mxCell>
        <mxCell id="qma_3xTh6tT7LOHASFIu-72" value="" style="endArrow=none;html=1;rounded=0;exitX=0.6;exitY=0;exitDx=0;exitDy=0;exitPerimeter=0;" edge="1" parent="1" target="qma_3xTh6tT7LOHASFIu-68">
          <mxGeometry width="50" height="50" relative="1" as="geometry">
            <mxPoint x="796" y="850" as="sourcePoint" />
            <mxPoint x="838" y="820" as="targetPoint" />
          </mxGeometry>
        </mxCell>
        <mxCell id="qma_3xTh6tT7LOHASFIu-73" value="Toninho" style="shape=process;whiteSpace=wrap;html=1;backgroundOutline=1;fillColor=#bac8d3;strokeColor=#23445d;" vertex="1" parent="1">
          <mxGeometry x="745" y="850" width="92" height="30" as="geometry" />
        </mxCell>
        <mxCell id="qma_3xTh6tT7LOHASFIu-74" value="Homens&amp;nbsp;&lt;br&gt;humanos" style="shape=parallelogram;perimeter=parallelogramPerimeter;whiteSpace=wrap;html=1;fixedSize=1;fillColor=#fad9d5;strokeColor=#ae4132;" vertex="1" parent="1">
          <mxGeometry x="630" y="850" width="100" height="50" as="geometry" />
        </mxCell>
        <mxCell id="qma_3xTh6tT7LOHASFIu-75" value="" style="endArrow=none;html=1;rounded=0;" edge="1" parent="1" source="qma_3xTh6tT7LOHASFIu-74" target="qma_3xTh6tT7LOHASFIu-70">
          <mxGeometry width="50" height="50" relative="1" as="geometry">
            <mxPoint x="620" y="740" as="sourcePoint" />
            <mxPoint x="670" y="690" as="targetPoint" />
          </mxGeometry>
        </mxCell>
        <mxCell id="qma_3xTh6tT7LOHASFIu-76" value="Sim" style="rounded=1;whiteSpace=wrap;html=1;fillColor=#f5f5f5;strokeColor=#666666;gradientColor=#b3b3b3;" vertex="1" parent="1">
          <mxGeometry x="595" y="290" width="55" height="40" as="geometry" />
        </mxCell>
        <mxCell id="qma_3xTh6tT7LOHASFIu-80" value="Foi morto por causa do uso de capa?" style="rounded=1;whiteSpace=wrap;html=1;fillColor=#b0e3e6;strokeColor=#0e8088;" vertex="1" parent="1">
          <mxGeometry x="-260" y="390" width="85" height="60" as="geometry" />
        </mxCell>
        <mxCell id="qma_3xTh6tT7LOHASFIu-82" value="Sim" style="rounded=1;whiteSpace=wrap;html=1;fillColor=#fff2cc;strokeColor=#d6b656;" vertex="1" parent="1">
          <mxGeometry x="-170" y="460" width="40" height="40" as="geometry" />
        </mxCell>
        <mxCell id="qma_3xTh6tT7LOHASFIu-83" value="" style="endArrow=none;html=1;rounded=0;exitX=0.622;exitY=0.05;exitDx=0;exitDy=0;exitPerimeter=0;" edge="1" parent="1" source="qma_3xTh6tT7LOHASFIu-82">
          <mxGeometry width="50" height="50" relative="1" as="geometry">
            <mxPoint x="-240" y="570" as="sourcePoint" />
            <mxPoint x="-212" y="450" as="targetPoint" />
          </mxGeometry>
        </mxCell>
        <mxCell id="qma_3xTh6tT7LOHASFIu-84" value="Não" style="rounded=1;whiteSpace=wrap;html=1;fillColor=#d5e8d4;strokeColor=#82b366;" vertex="1" parent="1">
          <mxGeometry x="-360" y="480" width="35" height="40" as="geometry" />
        </mxCell>
        <mxCell id="qma_3xTh6tT7LOHASFIu-85" value="" style="endArrow=none;html=1;rounded=0;" edge="1" parent="1" source="qma_3xTh6tT7LOHASFIu-84">
          <mxGeometry width="50" height="50" relative="1" as="geometry">
            <mxPoint x="-80" y="570" as="sourcePoint" />
            <mxPoint x="-217" y="450" as="targetPoint" />
          </mxGeometry>
        </mxCell>
        <mxCell id="qma_3xTh6tT7LOHASFIu-86" value="" style="endArrow=none;html=1;rounded=0;entryX=0.642;entryY=0.977;entryDx=0;entryDy=0;entryPerimeter=0;" edge="1" parent="1" source="qma_3xTh6tT7LOHASFIu-80" target="_iIOO6hCiXQxucpZOUNH-25">
          <mxGeometry width="50" height="50" relative="1" as="geometry">
            <mxPoint x="-80" y="450" as="sourcePoint" />
            <mxPoint x="-30" y="400" as="targetPoint" />
          </mxGeometry>
        </mxCell>
        <mxCell id="qma_3xTh6tT7LOHASFIu-89" value="morte por capa" style="shape=parallelogram;perimeter=parallelogramPerimeter;whiteSpace=wrap;html=1;fixedSize=1;fillColor=#fad9d5;strokeColor=#ae4132;" vertex="1" parent="1">
          <mxGeometry x="-170" y="510" width="80" height="60" as="geometry" />
        </mxCell>
        <mxCell id="qma_3xTh6tT7LOHASFIu-90" value="Sim" style="rounded=1;whiteSpace=wrap;html=1;fillColor=#fff2cc;strokeColor=#d6b656;" vertex="1" parent="1">
          <mxGeometry x="-185" y="640" width="45" height="30" as="geometry" />
        </mxCell>
        <mxCell id="qma_3xTh6tT7LOHASFIu-91" value="" style="endArrow=none;html=1;rounded=0;exitX=0.622;exitY=0.05;exitDx=0;exitDy=0;exitPerimeter=0;entryX=0.5;entryY=1;entryDx=0;entryDy=0;" edge="1" parent="1" source="qma_3xTh6tT7LOHASFIu-90">
          <mxGeometry width="50" height="50" relative="1" as="geometry">
            <mxPoint x="-115" y="730" as="sourcePoint" />
            <mxPoint x="-125" y="620" as="targetPoint" />
          </mxGeometry>
        </mxCell>
        <mxCell id="qma_3xTh6tT7LOHASFIu-92" value="Não" style="rounded=1;whiteSpace=wrap;html=1;fillColor=#d5e8d4;strokeColor=#82b366;" vertex="1" parent="1">
          <mxGeometry x="-115" y="640" width="45" height="30" as="geometry" />
        </mxCell>
        <mxCell id="qma_3xTh6tT7LOHASFIu-93" value="" style="endArrow=none;html=1;rounded=0;entryX=0.5;entryY=1;entryDx=0;entryDy=0;" edge="1" parent="1" source="qma_3xTh6tT7LOHASFIu-92">
          <mxGeometry width="50" height="50" relative="1" as="geometry">
            <mxPoint x="45" y="730" as="sourcePoint" />
            <mxPoint x="-125" y="620" as="targetPoint" />
          </mxGeometry>
        </mxCell>
        <mxCell id="qma_3xTh6tT7LOHASFIu-94" value="É mulher?" style="rounded=1;whiteSpace=wrap;html=1;fillColor=#e6d0de;gradientColor=#d5739d;strokeColor=#996185;" vertex="1" parent="1">
          <mxGeometry x="-160" y="600" width="60" height="30" as="geometry" />
        </mxCell>
        <mxCell id="qma_3xTh6tT7LOHASFIu-95" value="" style="endArrow=none;html=1;rounded=0;exitX=0.417;exitY=-0.011;exitDx=0;exitDy=0;exitPerimeter=0;fillColor=#e6d0de;strokeColor=#996185;gradientColor=#d5739d;" edge="1" parent="1" source="qma_3xTh6tT7LOHASFIu-94" target="qma_3xTh6tT7LOHASFIu-89">
          <mxGeometry width="50" height="50" relative="1" as="geometry">
            <mxPoint x="-150" y="590" as="sourcePoint" />
            <mxPoint x="-100" y="540" as="targetPoint" />
          </mxGeometry>
        </mxCell>
        <mxCell id="qma_3xTh6tT7LOHASFIu-101" value="Strato gata" style="shape=process;whiteSpace=wrap;html=1;backgroundOutline=1;fillColor=#bac8d3;strokeColor=#23445d;" vertex="1" parent="1">
          <mxGeometry x="-202.5" y="690" width="80" height="30" as="geometry" />
        </mxCell>
        <mxCell id="qma_3xTh6tT7LOHASFIu-102" value="" style="endArrow=none;html=1;rounded=0;exitX=0.585;exitY=0.056;exitDx=0;exitDy=0;exitPerimeter=0;" edge="1" parent="1" source="qma_3xTh6tT7LOHASFIu-101" target="qma_3xTh6tT7LOHASFIu-90">
          <mxGeometry width="50" height="50" relative="1" as="geometry">
            <mxPoint x="-100" y="670" as="sourcePoint" />
            <mxPoint x="-50" y="620" as="targetPoint" />
          </mxGeometry>
        </mxCell>
        <mxCell id="qma_3xTh6tT7LOHASFIu-103" value="homens &lt;br&gt;mortos &lt;br&gt;por capa" style="shape=parallelogram;perimeter=parallelogramPerimeter;whiteSpace=wrap;html=1;fixedSize=1;fillColor=#fad9d5;strokeColor=#ae4132;" vertex="1" parent="1">
          <mxGeometry x="-115" y="680" width="95" height="60" as="geometry" />
        </mxCell>
        <mxCell id="qma_3xTh6tT7LOHASFIu-104" value="" style="endArrow=none;html=1;rounded=0;exitX=0.4;exitY=0.039;exitDx=0;exitDy=0;exitPerimeter=0;" edge="1" parent="1" source="qma_3xTh6tT7LOHASFIu-103" target="qma_3xTh6tT7LOHASFIu-92">
          <mxGeometry width="50" height="50" relative="1" as="geometry">
            <mxPoint x="-100" y="670" as="sourcePoint" />
            <mxPoint x="-50" y="620" as="targetPoint" />
          </mxGeometry>
        </mxCell>
        <mxCell id="qma_3xTh6tT7LOHASFIu-105" value="" style="endArrow=none;html=1;rounded=0;exitX=0.375;exitY=0.167;exitDx=0;exitDy=0;exitPerimeter=0;" edge="1" parent="1" source="qma_3xTh6tT7LOHASFIu-89" target="qma_3xTh6tT7LOHASFIu-82">
          <mxGeometry width="50" height="50" relative="1" as="geometry">
            <mxPoint x="-260" y="510" as="sourcePoint" />
            <mxPoint x="-210" y="460" as="targetPoint" />
          </mxGeometry>
        </mxCell>
        <mxCell id="qma_3xTh6tT7LOHASFIu-106" value="Fazia parte dos fantasmaticos" style="rounded=1;whiteSpace=wrap;html=1;fillColor=#fff2cc;gradientColor=#ffd966;strokeColor=#d6b656;" vertex="1" parent="1">
          <mxGeometry x="-470" y="550" width="100" height="60" as="geometry" />
        </mxCell>
        <mxCell id="qma_3xTh6tT7LOHASFIu-107" value="Sim" style="rounded=1;whiteSpace=wrap;html=1;fillColor=#d5e8d4;strokeColor=#82b366;" vertex="1" parent="1">
          <mxGeometry x="-490" y="630" width="35" height="40" as="geometry" />
        </mxCell>
        <mxCell id="qma_3xTh6tT7LOHASFIu-108" value="Não" style="rounded=1;whiteSpace=wrap;html=1;fillColor=#d5e8d4;strokeColor=#82b366;" vertex="1" parent="1">
          <mxGeometry x="-437.5" y="630" width="35" height="40" as="geometry" />
        </mxCell>
        <mxCell id="qma_3xTh6tT7LOHASFIu-109" value="Não sei" style="rounded=1;whiteSpace=wrap;html=1;fillColor=#d5e8d4;strokeColor=#82b366;" vertex="1" parent="1">
          <mxGeometry x="-380" y="630" width="40" height="40" as="geometry" />
        </mxCell>
        <mxCell id="qma_3xTh6tT7LOHASFIu-111" value="" style="endArrow=none;html=1;rounded=0;exitX=0.5;exitY=0;exitDx=0;exitDy=0;" edge="1" parent="1" source="qma_3xTh6tT7LOHASFIu-107" target="qma_3xTh6tT7LOHASFIu-106">
          <mxGeometry width="50" height="50" relative="1" as="geometry">
            <mxPoint x="-260" y="590" as="sourcePoint" />
            <mxPoint x="-210" y="540" as="targetPoint" />
          </mxGeometry>
        </mxCell>
        <mxCell id="qma_3xTh6tT7LOHASFIu-112" value="" style="endArrow=none;html=1;rounded=0;entryX=0.423;entryY=1.006;entryDx=0;entryDy=0;entryPerimeter=0;" edge="1" parent="1" source="qma_3xTh6tT7LOHASFIu-108" target="qma_3xTh6tT7LOHASFIu-106">
          <mxGeometry width="50" height="50" relative="1" as="geometry">
            <mxPoint x="-462" y="640" as="sourcePoint" />
            <mxPoint x="-441" y="620" as="targetPoint" />
          </mxGeometry>
        </mxCell>
        <mxCell id="qma_3xTh6tT7LOHASFIu-113" value="" style="endArrow=none;html=1;rounded=0;entryX=0.637;entryY=0.994;entryDx=0;entryDy=0;entryPerimeter=0;" edge="1" parent="1" source="qma_3xTh6tT7LOHASFIu-109" target="qma_3xTh6tT7LOHASFIu-106">
          <mxGeometry width="50" height="50" relative="1" as="geometry">
            <mxPoint x="-414" y="640" as="sourcePoint" />
            <mxPoint x="-418" y="620" as="targetPoint" />
          </mxGeometry>
        </mxCell>
        <mxCell id="qma_3xTh6tT7LOHASFIu-118" value="PRINT(&quot;HEROIS da EQUIPE&quot;)" style="text;html=1;strokeColor=none;fillColor=none;align=center;verticalAlign=middle;whiteSpace=wrap;rounded=0;" vertex="1" parent="1">
          <mxGeometry x="-380" y="680" width="130" height="30" as="geometry" />
        </mxCell>
        <mxCell id="qma_3xTh6tT7LOHASFIu-121" value="" style="endArrow=none;html=1;rounded=0;entryX=1;entryY=0.5;entryDx=0;entryDy=0;" edge="1" parent="1" source="qma_3xTh6tT7LOHASFIu-118" target="qma_3xTh6tT7LOHASFIu-109">
          <mxGeometry width="50" height="50" relative="1" as="geometry">
            <mxPoint x="-260" y="670" as="sourcePoint" />
            <mxPoint x="-210" y="620" as="targetPoint" />
          </mxGeometry>
        </mxCell>
        <mxCell id="qma_3xTh6tT7LOHASFIu-122" value="Era lider dos fantasmaticos?" style="rounded=1;whiteSpace=wrap;html=1;fillColor=#f8cecc;gradientColor=#ea6b66;strokeColor=#b85450;" vertex="1" parent="1">
          <mxGeometry x="-600" y="690" width="90" height="60" as="geometry" />
        </mxCell>
        <mxCell id="qma_3xTh6tT7LOHASFIu-124" value="Não_&lt;br&gt;fantasmatic" style="shape=parallelogram;perimeter=parallelogramPerimeter;whiteSpace=wrap;html=1;fixedSize=1;fillColor=#fad9d5;strokeColor=#ae4132;" vertex="1" parent="1">
          <mxGeometry x="-437.5" y="720" width="95" height="60" as="geometry" />
        </mxCell>
        <mxCell id="qma_3xTh6tT7LOHASFIu-125" value="Sim" style="rounded=1;whiteSpace=wrap;html=1;fillColor=#fff2cc;strokeColor=#d6b656;" vertex="1" parent="1">
          <mxGeometry x="-425" y="860" width="45" height="30" as="geometry" />
        </mxCell>
        <mxCell id="qma_3xTh6tT7LOHASFIu-126" value="" style="endArrow=none;html=1;rounded=0;exitX=0.622;exitY=0.05;exitDx=0;exitDy=0;exitPerimeter=0;entryX=0.5;entryY=1;entryDx=0;entryDy=0;" edge="1" parent="1" source="qma_3xTh6tT7LOHASFIu-125">
          <mxGeometry width="50" height="50" relative="1" as="geometry">
            <mxPoint x="-355" y="950" as="sourcePoint" />
            <mxPoint x="-365" y="840" as="targetPoint" />
          </mxGeometry>
        </mxCell>
        <mxCell id="qma_3xTh6tT7LOHASFIu-127" value="Não" style="rounded=1;whiteSpace=wrap;html=1;fillColor=#d5e8d4;strokeColor=#82b366;" vertex="1" parent="1">
          <mxGeometry x="-355" y="860" width="45" height="30" as="geometry" />
        </mxCell>
        <mxCell id="qma_3xTh6tT7LOHASFIu-128" value="" style="endArrow=none;html=1;rounded=0;entryX=0.5;entryY=1;entryDx=0;entryDy=0;" edge="1" parent="1" source="qma_3xTh6tT7LOHASFIu-127">
          <mxGeometry width="50" height="50" relative="1" as="geometry">
            <mxPoint x="-195" y="950" as="sourcePoint" />
            <mxPoint x="-365" y="840" as="targetPoint" />
          </mxGeometry>
        </mxCell>
        <mxCell id="qma_3xTh6tT7LOHASFIu-129" value="É mulher?" style="rounded=1;whiteSpace=wrap;html=1;fillColor=#e6d0de;gradientColor=#d5739d;strokeColor=#996185;" vertex="1" parent="1">
          <mxGeometry x="-400" y="820" width="60" height="30" as="geometry" />
        </mxCell>
        <mxCell id="qma_3xTh6tT7LOHASFIu-131" value="" style="endArrow=none;html=1;rounded=0;exitX=0.585;exitY=0.056;exitDx=0;exitDy=0;exitPerimeter=0;" edge="1" parent="1" target="qma_3xTh6tT7LOHASFIu-125">
          <mxGeometry width="50" height="50" relative="1" as="geometry">
            <mxPoint x="-395.70000000000005" y="911.6800000000001" as="sourcePoint" />
            <mxPoint x="-290" y="840" as="targetPoint" />
          </mxGeometry>
        </mxCell>
        <mxCell id="qma_3xTh6tT7LOHASFIu-132" value="Homens" style="shape=parallelogram;perimeter=parallelogramPerimeter;whiteSpace=wrap;html=1;fixedSize=1;fillColor=#fad9d5;strokeColor=#ae4132;" vertex="1" parent="1">
          <mxGeometry x="-355" y="900" width="95" height="60" as="geometry" />
        </mxCell>
        <mxCell id="qma_3xTh6tT7LOHASFIu-133" value="" style="endArrow=none;html=1;rounded=0;exitX=0.4;exitY=0.039;exitDx=0;exitDy=0;exitPerimeter=0;" edge="1" parent="1" source="qma_3xTh6tT7LOHASFIu-132" target="qma_3xTh6tT7LOHASFIu-127">
          <mxGeometry width="50" height="50" relative="1" as="geometry">
            <mxPoint x="-340" y="890" as="sourcePoint" />
            <mxPoint x="-290" y="840" as="targetPoint" />
          </mxGeometry>
        </mxCell>
        <mxCell id="qma_3xTh6tT7LOHASFIu-134" value="mulheres" style="shape=parallelogram;perimeter=parallelogramPerimeter;whiteSpace=wrap;html=1;fixedSize=1;fillColor=#fad9d5;strokeColor=#ae4132;" vertex="1" parent="1">
          <mxGeometry x="-450" y="900" width="95" height="60" as="geometry" />
        </mxCell>
        <mxCell id="qma_3xTh6tT7LOHASFIu-135" value="" style="endArrow=none;html=1;rounded=0;" edge="1" parent="1" source="qma_3xTh6tT7LOHASFIu-124" target="qma_3xTh6tT7LOHASFIu-108">
          <mxGeometry width="50" height="50" relative="1" as="geometry">
            <mxPoint x="-330" y="750" as="sourcePoint" />
            <mxPoint x="-280" y="700" as="targetPoint" />
          </mxGeometry>
        </mxCell>
        <mxCell id="qma_3xTh6tT7LOHASFIu-137" value="" style="endArrow=none;html=1;rounded=0;exitX=0.5;exitY=0;exitDx=0;exitDy=0;" edge="1" parent="1" source="qma_3xTh6tT7LOHASFIu-129" target="qma_3xTh6tT7LOHASFIu-124">
          <mxGeometry width="50" height="50" relative="1" as="geometry">
            <mxPoint x="-389" y="730" as="sourcePoint" />
            <mxPoint x="-390" y="740" as="targetPoint" />
          </mxGeometry>
        </mxCell>
        <mxCell id="qma_3xTh6tT7LOHASFIu-138" value="Sim" style="rounded=1;whiteSpace=wrap;html=1;fillColor=#d5e8d4;strokeColor=#82b366;" vertex="1" parent="1">
          <mxGeometry x="-620" y="770" width="35" height="40" as="geometry" />
        </mxCell>
        <mxCell id="qma_3xTh6tT7LOHASFIu-139" value="Não" style="rounded=1;whiteSpace=wrap;html=1;fillColor=#d5e8d4;strokeColor=#82b366;" vertex="1" parent="1">
          <mxGeometry x="-567.5" y="770" width="35" height="40" as="geometry" />
        </mxCell>
        <mxCell id="qma_3xTh6tT7LOHASFIu-140" value="" style="endArrow=none;html=1;rounded=0;exitX=0.5;exitY=0;exitDx=0;exitDy=0;" edge="1" parent="1" source="qma_3xTh6tT7LOHASFIu-138">
          <mxGeometry width="50" height="50" relative="1" as="geometry">
            <mxPoint x="-390" y="730" as="sourcePoint" />
            <mxPoint x="-581" y="750" as="targetPoint" />
          </mxGeometry>
        </mxCell>
        <mxCell id="qma_3xTh6tT7LOHASFIu-141" value="" style="endArrow=none;html=1;rounded=0;entryX=0.423;entryY=1.006;entryDx=0;entryDy=0;entryPerimeter=0;" edge="1" parent="1" source="qma_3xTh6tT7LOHASFIu-139">
          <mxGeometry width="50" height="50" relative="1" as="geometry">
            <mxPoint x="-592" y="780" as="sourcePoint" />
            <mxPoint x="-558" y="750" as="targetPoint" />
          </mxGeometry>
        </mxCell>
        <mxCell id="qma_3xTh6tT7LOHASFIu-142" value="Vidente" style="shape=process;whiteSpace=wrap;html=1;backgroundOutline=1;fillColor=#bac8d3;strokeColor=#23445d;" vertex="1" parent="1">
          <mxGeometry x="-710" y="820" width="80" height="30" as="geometry" />
        </mxCell>
        <mxCell id="qma_3xTh6tT7LOHASFIu-143" value="" style="endArrow=none;html=1;rounded=0;exitX=0.688;exitY=0.011;exitDx=0;exitDy=0;exitPerimeter=0;" edge="1" parent="1" source="qma_3xTh6tT7LOHASFIu-142">
          <mxGeometry width="50" height="50" relative="1" as="geometry">
            <mxPoint x="-620" y="750" as="sourcePoint" />
            <mxPoint x="-620" y="790" as="targetPoint" />
          </mxGeometry>
        </mxCell>
        <mxCell id="qma_3xTh6tT7LOHASFIu-144" value="Sim" style="rounded=1;whiteSpace=wrap;html=1;fillColor=#fff2cc;strokeColor=#d6b656;" vertex="1" parent="1">
          <mxGeometry x="-590" y="880" width="45" height="30" as="geometry" />
        </mxCell>
        <mxCell id="qma_3xTh6tT7LOHASFIu-145" value="" style="endArrow=none;html=1;rounded=0;exitX=0.622;exitY=0.05;exitDx=0;exitDy=0;exitPerimeter=0;entryX=0.5;entryY=1;entryDx=0;entryDy=0;" edge="1" parent="1" source="qma_3xTh6tT7LOHASFIu-144">
          <mxGeometry width="50" height="50" relative="1" as="geometry">
            <mxPoint x="-520" y="970" as="sourcePoint" />
            <mxPoint x="-530" y="860" as="targetPoint" />
          </mxGeometry>
        </mxCell>
        <mxCell id="qma_3xTh6tT7LOHASFIu-146" value="Não" style="rounded=1;whiteSpace=wrap;html=1;fillColor=#d5e8d4;strokeColor=#82b366;" vertex="1" parent="1">
          <mxGeometry x="-520" y="880" width="45" height="30" as="geometry" />
        </mxCell>
        <mxCell id="qma_3xTh6tT7LOHASFIu-147" value="" style="endArrow=none;html=1;rounded=0;entryX=0.5;entryY=1;entryDx=0;entryDy=0;" edge="1" parent="1" source="qma_3xTh6tT7LOHASFIu-146">
          <mxGeometry width="50" height="50" relative="1" as="geometry">
            <mxPoint x="-360" y="970" as="sourcePoint" />
            <mxPoint x="-530" y="860" as="targetPoint" />
          </mxGeometry>
        </mxCell>
        <mxCell id="qma_3xTh6tT7LOHASFIu-148" value="È Homem?" style="rounded=1;whiteSpace=wrap;html=1;fillColor=#e6d0de;gradientColor=#d5739d;strokeColor=#996185;" vertex="1" parent="1">
          <mxGeometry x="-565" y="840" width="60" height="30" as="geometry" />
        </mxCell>
        <mxCell id="qma_3xTh6tT7LOHASFIu-149" value="" style="endArrow=none;html=1;rounded=0;exitX=0.5;exitY=0;exitDx=0;exitDy=0;entryX=0.5;entryY=1;entryDx=0;entryDy=0;" edge="1" parent="1" source="qma_3xTh6tT7LOHASFIu-148" target="qma_3xTh6tT7LOHASFIu-139">
          <mxGeometry width="50" height="50" relative="1" as="geometry">
            <mxPoint x="-360" y="830" as="sourcePoint" />
            <mxPoint x="-371" y="790" as="targetPoint" />
          </mxGeometry>
        </mxCell>
        <mxCell id="qma_3xTh6tT7LOHASFIu-150" value="Onda Psiquica" style="shape=process;whiteSpace=wrap;html=1;backgroundOutline=1;fillColor=#bac8d3;strokeColor=#23445d;" vertex="1" parent="1">
          <mxGeometry x="-537.5" y="930" width="80" height="30" as="geometry" />
        </mxCell>
        <mxCell id="qma_3xTh6tT7LOHASFIu-151" value="" style="endArrow=none;html=1;rounded=0;exitX=0.556;exitY=0.033;exitDx=0;exitDy=0;exitPerimeter=0;" edge="1" parent="1" source="qma_3xTh6tT7LOHASFIu-150" target="qma_3xTh6tT7LOHASFIu-146">
          <mxGeometry width="50" height="50" relative="1" as="geometry">
            <mxPoint x="-450" y="910" as="sourcePoint" />
            <mxPoint x="-400" y="860" as="targetPoint" />
          </mxGeometry>
        </mxCell>
        <mxCell id="qma_3xTh6tT7LOHASFIu-152" value="Homens da equipe" style="shape=parallelogram;perimeter=parallelogramPerimeter;whiteSpace=wrap;html=1;fixedSize=1;fillColor=#fad9d5;strokeColor=#ae4132;" vertex="1" parent="1">
          <mxGeometry x="-660" y="930" width="95" height="60" as="geometry" />
        </mxCell>
        <mxCell id="qma_3xTh6tT7LOHASFIu-153" value="" style="endArrow=none;html=1;rounded=0;" edge="1" parent="1" target="qma_3xTh6tT7LOHASFIu-144">
          <mxGeometry width="50" height="50" relative="1" as="geometry">
            <mxPoint x="-580" y="940" as="sourcePoint" />
            <mxPoint x="-400" y="860" as="targetPoint" />
          </mxGeometry>
        </mxCell>
        <mxCell id="qma_3xTh6tT7LOHASFIu-154" value="" style="endArrow=none;html=1;rounded=0;entryX=0;entryY=0.5;entryDx=0;entryDy=0;" edge="1" parent="1" source="qma_3xTh6tT7LOHASFIu-122" target="qma_3xTh6tT7LOHASFIu-107">
          <mxGeometry width="50" height="50" relative="1" as="geometry">
            <mxPoint x="-580" y="730" as="sourcePoint" />
            <mxPoint x="-530" y="680" as="targetPoint" />
          </mxGeometry>
        </mxCell>
        <mxCell id="qma_3xTh6tT7LOHASFIu-155" value="" style="endArrow=none;html=1;rounded=0;exitX=0.5;exitY=0;exitDx=0;exitDy=0;entryX=0;entryY=0.5;entryDx=0;entryDy=0;" edge="1" parent="1" source="qma_3xTh6tT7LOHASFIu-106" target="qma_3xTh6tT7LOHASFIu-84">
          <mxGeometry width="50" height="50" relative="1" as="geometry">
            <mxPoint x="-405" y="545" as="sourcePoint" />
            <mxPoint x="-355" y="495" as="targetPoint" />
          </mxGeometry>
        </mxCell>
      </root>
    </mxGraphModel>
  </diagram>
</mxfile>
